<svg xmlns="http://www.w3.org/2000/svg" width="150" height="150" viewBox="0 0 150 150">
  <g id="Group_1745" data-name="Group 1745" transform="translate(-39 -2008)">
    <rect id="Rectangle_744" data-name="Rectangle 744" width="150" height="150" transform="translate(39 2008)" fill="none"/>
    <g id="_74176" data-name="74176" transform="translate(68.915 2549.916)">
      <path id="Path_1505" data-name="Path 1505" d="M34.013-511.611a7.687,7.687,0,0,0-5.207,4.9,39.05,39.05,0,0,0-.284,4.727l-.107,4.176-4.176.089c-3.714.089-4.283.142-5.1.48a7.992,7.992,0,0,0-4.372,4.372c-.338.817-.391,1.386-.48,5.1l-.089,4.176-4.176.107a39.053,39.053,0,0,0-4.727.284,7.688,7.688,0,0,0-4.9,5.207c-.267,1.066-.3,3.128-.3,25.519-.018,15.87.053,24.7.16,25.324a7.581,7.581,0,0,0,6.024,6.024c.622.107,9.454.178,25.324.16,22.392,0,24.453-.036,25.519-.3a7.687,7.687,0,0,0,5.207-4.9,39.05,39.05,0,0,0,.284-4.727l.107-4.176,4.176-.089c3.714-.089,4.283-.142,5.1-.48a7.992,7.992,0,0,0,4.372-4.372c.338-.817.391-1.386.48-5.1l.089-4.176,4.176-.107a39.053,39.053,0,0,0,4.727-.284,7.687,7.687,0,0,0,4.9-5.207c.267-1.066.3-3.128.3-25.519.018-15.87-.053-24.7-.16-25.324a7.581,7.581,0,0,0-6.024-6.024c-.622-.107-9.454-.178-25.324-.16C37.14-511.913,35.079-511.877,34.013-511.611Zm50.239,6.469.409.373v24.115c0,21.521-.036,24.133-.284,24.489-.267.391-.355.391-3.91.391H76.841v-17.753c0-17.2-.018-17.789-.355-18.891a7.694,7.694,0,0,0-4.94-4.94c-1.1-.338-1.688-.355-18.891-.355H34.9v-3.625c0-3.554,0-3.643.391-3.91.355-.249,2.968-.284,24.471-.284h24.08ZM70.124-491.014c.3.267.32,1.262.32,24.542,0,22.338-.018,24.293-.3,24.6-.267.284-.622.32-3.892.32H62.624l-.036-18.18-.053-18.18-.658-1.333a7.417,7.417,0,0,0-3.661-3.59l-1.191-.569-18.162-.053-18.18-.036v-3.59c0-3.074.036-3.625.3-3.91.267-.3,1.262-.32,24.542-.32C67.867-491.316,69.822-491.3,70.124-491.014ZM55.907-476.8c.3.267.32,1.049.32,17.576v17.309L55.48-442c-.924-.124-12.653-.977-13.222-.977-.284,0-1.3-1.049-3.963-4.087-4.8-5.491-4.532-5.438-9.063-1.795a32.017,32.017,0,0,1-2.772,2.115c-.053-.036-1.439-3.146-3.11-6.9-2.2-4.976-3.163-6.966-3.554-7.322a2.174,2.174,0,0,0-2.47-.409c-.8.355-.675.178-6.5,9.632l-4.265,6.931L6.5-460.536c-.036-13.862,0-15.781.231-16.154L7-477.1H31.294C53.632-477.1,55.6-477.081,55.907-476.8Zm-35.4,28.576c3.11,7,3.092,6.948,3.785,7.375a2.527,2.527,0,0,0,2.435.053c.249-.16,1.742-1.333,3.323-2.595a24.956,24.956,0,0,1,3.057-2.221c.071.018,1.475,1.582,3.092,3.448a34.964,34.964,0,0,0,3.412,3.59c.249.107,3.75.444,7.784.746,9.561.693,8.832.586,8.832,1.351v.6H31.507c-19.708,0-24.7-.053-24.631-.231.071-.2,9.97-16.3,10.7-17.434a1.792,1.792,0,0,1,.355-.426C17.965-453.925,19.12-451.348,20.506-448.221Zm35.72,18.731c0,1.457-.036,1.617-.391,1.866s-2.968.284-24.471.284H7.285l-.409-.391c-.355-.338-.409-.551-.409-1.866v-1.475H56.227Z" transform="translate(0)" fill="#fff"/>
      <path id="Path_1506" data-name="Path 1506" d="M193.53-286.594a7.428,7.428,0,0,0-4.852,8.157,7.416,7.416,0,0,0,11.445,4.994,7.027,7.027,0,0,0,3.252-5.776,6.962,6.962,0,0,0-2.168-5.669A7.451,7.451,0,0,0,193.53-286.594Z" transform="translate(-155.004 -184.925)" fill="#fff"/>
    </g>
  </g>
</svg>
