<svg xmlns="http://www.w3.org/2000/svg" width="150" height="150" viewBox="0 0 150 150">
  <g id="Group_1747" data-name="Group 1747" transform="translate(-50 -2492)">
    <rect id="Rectangle_742" data-name="Rectangle 742" width="150" height="150" transform="translate(50 2492)" fill="none"/>
    <g id="_4116933" data-name="4116933" transform="translate(-65.769 3018.929)">
      <path id="Path_1484" data-name="Path 1484" d="M172.838-503.607a7.058,7.058,0,0,0-2.66,1.434c-2.4,1.961-2.191-2.952-2.191,50.528,0,53.417-.209,48.566,2.165,50.486,2.347,1.9,1.591,1.835,21.309,1.771l17.084-.063,1.3-.569a6.613,6.613,0,0,0,3.286-2.7l.626-.949.078-47.554c.078-54.071.287-48.967-2.191-50.971-2.217-1.814-1.539-1.75-20.813-1.729C176.75-503.923,173.907-503.86,172.838-503.607Zm9,5.926c.626,2.046,1.069,3.058,1.461,3.374.574.485.652.485,7.642.485s7.068,0,7.642-.485c.391-.316.835-1.329,1.461-3.374l.861-2.931,3.495.084,3.495.063.835.7.861.675v94.9l-.861.675-.835.7-3.495.063-3.495.084-.861-2.931c-.626-2.046-1.069-3.058-1.461-3.374-.574-.485-.652-.485-7.642-.485s-7.068,0-7.642.485c-.391.316-.835,1.329-1.461,3.374l-.861,2.931-3.495-.084-3.495-.063-.835-.7-.861-.675v-94.855l.652-.569c.965-.844,1.382-.928,4.851-.928l3.182-.021Zm14.267-1.2-.522,1.687H186.3l-.522-1.687-.522-1.687h11.372Zm0,94.476.522,1.687H185.253l.522-1.687.522-1.687h9.285Z" transform="translate(-0.213)" fill="#fff"/>
      <path id="Path_1485" data-name="Path 1485" d="M200.527-439.473a1.644,1.644,0,0,0-.527,1.16,1.644,1.644,0,0,0,.527,1.16c.485.506.654.527,2.847.527s2.362-.021,2.847-.527a1.644,1.644,0,0,0,.527-1.16,1.644,1.644,0,0,0-.527-1.16c-.485-.506-.654-.527-2.847-.527S201.012-439.979,200.527-439.473Z" transform="translate(-23.312 -50.448)" fill="#fff"/>
      <path id="Path_1486" data-name="Path 1486" d="M240.527-439.473a1.644,1.644,0,0,0-.527,1.16,1.644,1.644,0,0,0,.527,1.16c.485.506.654.527,2.847.527s2.362-.021,2.847-.527a1.644,1.644,0,0,0,.527-1.16,1.644,1.644,0,0,0-.527-1.16c-.485-.506-.654-.527-2.847-.527S241.012-439.979,240.527-439.473Z" transform="translate(-52.435 -50.448)" fill="#fff"/>
      <path id="Path_1487" data-name="Path 1487" d="M280.527-439.473a1.644,1.644,0,0,0-.527,1.16,1.644,1.644,0,0,0,.527,1.16c.485.506.654.527,2.847.527s2.362-.021,2.847-.527a1.644,1.644,0,0,0,.527-1.16,1.644,1.644,0,0,0-.527-1.16c-.485-.506-.654-.527-2.847-.527S281.012-439.979,280.527-439.473Z" transform="translate(-81.558 -50.448)" fill="#fff"/>
      <path id="Path_1488" data-name="Path 1488" d="M200.527-407.473a1.644,1.644,0,0,0-.527,1.16,1.644,1.644,0,0,0,.527,1.16c.485.506.654.527,2.847.527s2.362-.021,2.847-.527a1.644,1.644,0,0,0,.527-1.16,1.644,1.644,0,0,0-.527-1.16c-.485-.506-.654-.527-2.847-.527S201.012-407.979,200.527-407.473Z" transform="translate(-23.312 -75.699)" fill="#fff"/>
      <path id="Path_1489" data-name="Path 1489" d="M240.527-407.473a1.644,1.644,0,0,0-.527,1.16,1.644,1.644,0,0,0,.527,1.16c.485.506.654.527,2.847.527s2.362-.021,2.847-.527a1.644,1.644,0,0,0,.527-1.16,1.644,1.644,0,0,0-.527-1.16c-.485-.506-.654-.527-2.847-.527S241.012-407.979,240.527-407.473Z" transform="translate(-52.435 -75.699)" fill="#fff"/>
      <path id="Path_1490" data-name="Path 1490" d="M280.527-407.473a1.644,1.644,0,0,0-.527,1.16,1.644,1.644,0,0,0,.527,1.16c.485.506.654.527,2.847.527s2.362-.021,2.847-.527a1.644,1.644,0,0,0,.527-1.16,1.644,1.644,0,0,0-.527-1.16c-.485-.506-.654-.527-2.847-.527S281.012-407.979,280.527-407.473Z" transform="translate(-81.558 -75.699)" fill="#fff"/>
      <path id="Path_1491" data-name="Path 1491" d="M200.527-375.473a1.644,1.644,0,0,0-.527,1.16,1.644,1.644,0,0,0,.527,1.16c.485.506.654.527,2.847.527s2.362-.021,2.847-.527a1.644,1.644,0,0,0,.527-1.16,1.644,1.644,0,0,0-.527-1.16c-.485-.506-.654-.527-2.847-.527S201.012-375.979,200.527-375.473Z" transform="translate(-23.312 -100.951)" fill="#fff"/>
      <path id="Path_1492" data-name="Path 1492" d="M240.527-375.473a1.644,1.644,0,0,0-.527,1.16,1.644,1.644,0,0,0,.527,1.16c.485.506.654.527,2.847.527s2.362-.021,2.847-.527a1.644,1.644,0,0,0,.527-1.16,1.644,1.644,0,0,0-.527-1.16c-.485-.506-.654-.527-2.847-.527S241.012-375.979,240.527-375.473Z" transform="translate(-52.435 -100.951)" fill="#fff"/>
      <path id="Path_1493" data-name="Path 1493" d="M280.527-375.473a1.644,1.644,0,0,0-.527,1.16,1.644,1.644,0,0,0,.527,1.16c.485.506.654.527,2.847.527s2.362-.021,2.847-.527a1.644,1.644,0,0,0,.527-1.16,1.644,1.644,0,0,0-.527-1.16c-.485-.506-.654-.527-2.847-.527S281.012-375.979,280.527-375.473Z" transform="translate(-81.558 -100.951)" fill="#fff"/>
      <path id="Path_1494" data-name="Path 1494" d="M203.774-319.578a15.426,15.426,0,0,0-10.069,7.9,14.615,14.615,0,0,0,0,13.51,15.076,15.076,0,0,0,13.355,8.256,15.144,15.144,0,0,0,13.331-8.209,14.887,14.887,0,0,0-.352-14.307A15.254,15.254,0,0,0,203.774-319.578Zm5.985,3.753a11.273,11.273,0,0,1,8.4,12.454,11.224,11.224,0,0,1-9.6,9.546,11.253,11.253,0,0,1-12.416-13.744A11.326,11.326,0,0,1,209.759-315.825Z" transform="translate(-16.281 -145.021)" fill="#fff"/>
      <path id="Path_1495" data-name="Path 1495" d="M228.724-287.531a6.792,6.792,0,0,0-4.6,6.9,6.7,6.7,0,0,0,12.59,2.678,4.713,4.713,0,0,0,.759-3.163,5.167,5.167,0,0,0-.569-2.868A5.974,5.974,0,0,0,234-287,6.96,6.96,0,0,0,228.724-287.531Zm3.437,3.332a3.312,3.312,0,0,1,1.012,5.42,3.179,3.179,0,0,1-4.682,0A3.33,3.33,0,0,1,232.161-284.2Z" transform="translate(-40.337 -169.095)" fill="#fff"/>
      <path id="Path_1496" data-name="Path 1496" d="M200.527-151.473a1.644,1.644,0,0,0-.527,1.16,1.644,1.644,0,0,0,.527,1.16c.485.506.654.527,2.847.527s2.362-.021,2.847-.527a1.644,1.644,0,0,0,.527-1.16,1.644,1.644,0,0,0-.527-1.16c-.485-.506-.654-.527-2.847-.527S201.012-151.979,200.527-151.473Z" transform="translate(-23.312 -277.713)" fill="#fff"/>
      <path id="Path_1497" data-name="Path 1497" d="M240.527-151.473a1.644,1.644,0,0,0-.527,1.16,1.644,1.644,0,0,0,.527,1.16c.485.506.654.527,2.847.527s2.362-.021,2.847-.527a1.644,1.644,0,0,0,.527-1.16,1.644,1.644,0,0,0-.527-1.16c-.485-.506-.654-.527-2.847-.527S241.012-151.979,240.527-151.473Z" transform="translate(-52.435 -277.713)" fill="#fff"/>
      <path id="Path_1498" data-name="Path 1498" d="M280.527-151.473a1.644,1.644,0,0,0-.527,1.16,1.644,1.644,0,0,0,.527,1.16c.485.506.654.527,2.847.527s2.362-.021,2.847-.527a1.644,1.644,0,0,0,.527-1.16,1.644,1.644,0,0,0-.527-1.16c-.485-.506-.654-.527-2.847-.527S281.012-151.979,280.527-151.473Z" transform="translate(-81.558 -277.713)" fill="#fff"/>
      <path id="Path_1499" data-name="Path 1499" d="M200.527-119.473a1.644,1.644,0,0,0-.527,1.16,1.644,1.644,0,0,0,.527,1.16c.485.506.654.527,2.847.527s2.362-.021,2.847-.527a1.644,1.644,0,0,0,.527-1.16,1.644,1.644,0,0,0-.527-1.16c-.485-.506-.654-.527-2.847-.527S201.012-119.979,200.527-119.473Z" transform="translate(-23.312 -302.965)" fill="#fff"/>
      <path id="Path_1500" data-name="Path 1500" d="M240.527-119.473a1.644,1.644,0,0,0-.527,1.16,1.644,1.644,0,0,0,.527,1.16c.485.506.654.527,2.847.527s2.362-.021,2.847-.527a1.644,1.644,0,0,0,.527-1.16,1.644,1.644,0,0,0-.527-1.16c-.485-.506-.654-.527-2.847-.527S241.012-119.979,240.527-119.473Z" transform="translate(-52.435 -302.965)" fill="#fff"/>
      <path id="Path_1501" data-name="Path 1501" d="M280.527-119.473a1.644,1.644,0,0,0-.527,1.16,1.644,1.644,0,0,0,.527,1.16c.485.506.654.527,2.847.527s2.362-.021,2.847-.527a1.644,1.644,0,0,0,.527-1.16,1.644,1.644,0,0,0-.527-1.16c-.485-.506-.654-.527-2.847-.527S281.012-119.979,280.527-119.473Z" transform="translate(-81.558 -302.965)" fill="#fff"/>
      <path id="Path_1502" data-name="Path 1502" d="M200.527-87.473a1.644,1.644,0,0,0-.527,1.16,1.644,1.644,0,0,0,.527,1.16c.485.506.654.527,2.847.527s2.362-.021,2.847-.527a1.644,1.644,0,0,0,.527-1.16,1.644,1.644,0,0,0-.527-1.16c-.485-.506-.654-.527-2.847-.527S201.012-87.979,200.527-87.473Z" transform="translate(-23.312 -328.216)" fill="#fff"/>
      <path id="Path_1503" data-name="Path 1503" d="M240.527-87.473a1.644,1.644,0,0,0-.527,1.16,1.644,1.644,0,0,0,.527,1.16c.485.506.654.527,2.847.527s2.362-.021,2.847-.527a1.644,1.644,0,0,0,.527-1.16,1.644,1.644,0,0,0-.527-1.16c-.485-.506-.654-.527-2.847-.527S241.012-87.979,240.527-87.473Z" transform="translate(-52.435 -328.216)" fill="#fff"/>
      <path id="Path_1504" data-name="Path 1504" d="M280.527-87.473a1.644,1.644,0,0,0-.527,1.16,1.644,1.644,0,0,0,.527,1.16c.485.506.654.527,2.847.527s2.362-.021,2.847-.527a1.644,1.644,0,0,0,.527-1.16,1.644,1.644,0,0,0-.527-1.16c-.485-.506-.654-.527-2.847-.527S281.012-87.979,280.527-87.473Z" transform="translate(-81.558 -328.216)" fill="#fff"/>
    </g>
  </g>
</svg>
