<svg xmlns="http://www.w3.org/2000/svg" width="150" height="150" viewBox="0 0 150 150">
  <g id="Group_1746" data-name="Group 1746" transform="translate(-39 -2261)">
    <rect id="Rectangle_745" data-name="Rectangle 745" width="150" height="150" transform="translate(39 2261)" fill="none"/>
    <g id="download" transform="translate(54.501 2488)">
      <path id="Path_1479" data-name="Path 1479" d="M191.874-194.325c-.838.942-2.042,2.356-2.722,3.089L188-189.875l2.879,1.989c3.56,2.46,7.8,6.963,9.318,10l1.152,2.3,3.141-3.141,3.141-3.193-1.518-2.827a26.781,26.781,0,0,0-9.371-9.685,24.18,24.18,0,0,0-3.036-1.57A11.2,11.2,0,0,0,191.874-194.325Z" transform="translate(-89.345)" fill="none" stroke="#fff" stroke-width="4"/>
      <path id="Path_1480" data-name="Path 1480" d="M23.376-184.243a21.866,21.866,0,0,0-5.706,3.35l-1.832,1.728,1.1,1.413a5.915,5.915,0,0,1,1.1,3.979c0,2.251-.262,2.879-1.728,4.345-2.356,2.356-4.764,2.775-7.957,1.361-1.728-.785-2.722-.942-3.141-.576-1.466,1.2-4.136,8.114-4.188,10.679,0,2.513.052,2.617,1.832,3.089a6.523,6.523,0,0,1,5.026,7.329c-.419,2.251-2.932,5.183-4.554,5.392C2.646-142.1,1.913-142,1.7-142a2.49,2.49,0,0,0-.942,1.152c-.471.838-.314,1.832.523,4.554,2.408,7.329,4.5,9.423,7.748,7.748a5.985,5.985,0,0,1,8.271,2.408c.681,1.309.785,2.513.576,5.444-.314,3.4-.262,3.822.838,4.816a27.472,27.472,0,0,0,8.533,4.083l1.518.314.89-4.136c1.152-5.549,2.827-9.842,4.659-11.936l1.57-1.728L33.9-129.9c-6.858-2.2-13.087-7.748-14.606-12.93-2.251-7.748,1.413-17.642,8.114-21.83a21.681,21.681,0,0,1,16.647-2.146c4.921,1.466,9.423,6.544,11.883,13.349l1.1,2.984,7.8-7.538c7.7-7.434,7.8-7.538,7.067-8.9a7.3,7.3,0,0,0-1.885-2.094c-1.047-.733-1.361-.681-2.932.314-3.141,1.937-8.376,1.1-9.789-1.466-.838-1.57-.628-6.073.366-7.8a3.74,3.74,0,0,0,.523-2.408c-.314-.838-4.973-3.193-9.475-4.816-1.78-.628-2.2-.628-3.193,0a4.207,4.207,0,0,0-1.466,2.408,6.612,6.612,0,0,1-4.293,4.5c-3.246.785-8.638-2.408-8.638-5.13C31.124-186.337,28.873-186.6,23.376-184.243Z" transform="translate(0 -4.847)" fill="none" stroke="#fff" stroke-width="4"/>
      <path id="Path_1481" data-name="Path 1481" d="M101.749-151.951,72.8-123l2.356,1.675a45.553,45.553,0,0,1,9.528,9.528l2.146,2.879,29-28.583,29-28.635-1.78-3.036c-1.885-3.089-8.062-9.266-10.784-10.836l-1.57-.89Z" transform="translate(-34.452 -7.195)" fill="none" stroke="#fff" stroke-width="4"/>
      <path id="Path_1482" data-name="Path 1482" d="M66.039-65.372c-.1.366-.838,2.879-1.623,5.6C63.056-54.954,63.056-54.8,64-54.117a19,19,0,0,1,4.188,3.926l1.1,1.413,5.444-1.675c2.984-.89,5.549-1.675,5.654-1.728.314-.262-2.2-4.083-4.5-6.858C73.84-61.5,67.924-66,66.772-66A.972.972,0,0,0,66.039-65.372Z" transform="translate(-29.942 -61.945)" fill="none" stroke="#fff" stroke-width="4"/>
      <path id="Path_1483" data-name="Path 1483" d="M59.837-38.016a12.544,12.544,0,0,0-.366,3.193,12.153,12.153,0,0,0,3.089-.681c2.775-.785,2.879-.942,2.356-1.989-.733-1.361-3.089-3.455-3.979-3.507C60.622-41,60.1-39.639,59.837-38.016Z" transform="translate(-28.085 -73.858)" fill="none" stroke="#fff" stroke-width="4"/>
    </g>
  </g>
</svg>
