<svg xmlns="http://www.w3.org/2000/svg" width="150" height="150" viewBox="0 0 150 150">
  <g id="Group_1745" data-name="Group 1745" transform="translate(-50 -1795)">
    <rect id="Rectangle_740" data-name="Rectangle 740" width="150" height="150" transform="translate(50 1795)" fill="none"/>
    <g id="_2178952" data-name="2178952" transform="translate(75 1820)">
      <path id="Path_1378" data-name="Path 1378" d="M33.2-511.544a5.711,5.711,0,0,0-4.176,5.627v.98l-1.333.686A51.144,51.144,0,0,0,12.91-491.9a55.877,55.877,0,0,0-4.862,7.274l-.667,1.314-1.372.078a5.646,5.646,0,0,0-4.96,3.254A4.915,4.915,0,0,0,.5-477.2,5.2,5.2,0,0,0,2.186-472.9a5.2,5.2,0,0,0,4.294,1.686,4.846,4.846,0,0,0,2.627-.471,6.159,6.159,0,0,0,1.9-9.685l-.647-.726.725-1.313a46.776,46.776,0,0,1,14.606-15.841c1.019-.686,2.451-1.568,3.2-1.96l1.314-.725.725.647a6.147,6.147,0,0,0,9.606-1.745,4.916,4.916,0,0,0,.549-2.784,4.6,4.6,0,0,0-.471-2.549A6.12,6.12,0,0,0,33.2-511.544Zm3.352,3.235a2.933,2.933,0,0,1-.882,5.411,2.73,2.73,0,0,1-2.764-.941,1.982,1.982,0,0,1-.745-1.824A2.862,2.862,0,0,1,36.554-508.309Zm-28,29.035c.8.8.863.921.863,1.921a2.875,2.875,0,0,1-4.392,2.647,2.9,2.9,0,0,1,1.608-5.43C7.636-480.136,7.754-480.078,8.558-479.274Z" transform="translate(-0.42 511.872)" fill="#fff" stroke="#fff" stroke-width="1"/>
      <path id="Path_1379" data-name="Path 1379" d="M308.171-511.479a6.9,6.9,0,0,0-3.705,3.862,6.405,6.405,0,0,0,1.588,6.411,6.285,6.285,0,0,0,8.352,0l.725-.647,1.313.725a45.173,45.173,0,0,1,10.293,7.862,44.227,44.227,0,0,1,7.509,9.94l.745,1.333-.608.628a5.448,5.448,0,0,0-1.568,4,4.277,4.277,0,0,0,.412,2.667,6.569,6.569,0,0,0,3,3.1,4.843,4.843,0,0,0,2.627.471,4.487,4.487,0,0,0,2.666-.529,6.047,6.047,0,0,0,1.333-9.94,5.491,5.491,0,0,0-3.882-1.588h-1l-.686-1.333A50.837,50.837,0,0,0,324.933-499.3a56.38,56.38,0,0,0-7.371-4.9l-1.255-.647v-1.02a6.048,6.048,0,0,0-3.431-5.333A6.94,6.94,0,0,0,308.171-511.479Zm3.431,3.157a2.934,2.934,0,0,1-1.372,5.528,2.863,2.863,0,0,1-2.49-4.391A2.873,2.873,0,0,1,311.6-508.322Zm29,28.819a2.9,2.9,0,0,1,1.137,2.647,2.646,2.646,0,0,1-1.529,2.333,2.915,2.915,0,0,1-4.293-2.725,2,2,0,0,1,.745-1.843A2.862,2.862,0,0,1,340.6-479.5Z" transform="translate(-244.571 511.787)" fill="#fff" stroke="#fff" stroke-width="1"/>
      <path id="Path_1380" data-name="Path 1380" d="M254-439.632v1.549l.9.137c.51.059,1.2.118,1.549.118h.647l.137-1.49a4.865,4.865,0,0,0,0-1.608,6.172,6.172,0,0,0-1.686-.216L254-441.2Z" transform="translate(-204.221 455.055)" fill="#fff" stroke="#fff" stroke-width="1"/>
      <path id="Path_1381" data-name="Path 1381" d="M222.235-439.61c-.706.117-1.235.294-1.235.412a18.7,18.7,0,0,0,.647,2.8,7.884,7.884,0,0,0,2.686-.314c.176-.1.2-.549.1-1.647C224.274-440.041,224.431-439.943,222.235-439.61Z" transform="translate(-177.691 453.936)" fill="#fff" stroke="#fff" stroke-width="1"/>
      <path id="Path_1382" data-name="Path 1382" d="M284.216-436.513c-.118.765-.216,1.451-.216,1.549a11.254,11.254,0,0,0,2.941.667,11.58,11.58,0,0,0,.588-2.706c0-.333-.176-.431-1.255-.627C284.392-437.984,284.471-438.023,284.216-436.513Z" transform="translate(-228.34 452.349)" fill="#fff" stroke="#fff" stroke-width="1"/>
      <path id="Path_1383" data-name="Path 1383" d="M191-433.33c-1.451.49-1.47.529-.765,2.392.471,1.255.392,1.235,2.411.471l1.059-.392-.451-1.411c-.255-.784-.568-1.431-.725-1.451A5.293,5.293,0,0,0,191-433.33Z" transform="translate(-152.596 449.048)" fill="#fff" stroke="#fff" stroke-width="1"/>
      <path id="Path_1384" data-name="Path 1384" d="M314.51-428.447c-.274.764-.51,1.451-.51,1.529a3.273,3.273,0,0,0,1.235.627c.667.255,1.274.49,1.372.529a9.386,9.386,0,0,0,1.313-2.667,5.62,5.62,0,0,0-2.2-1.117l-.706-.255Z" transform="translate(-252.458 445.89)" fill="#fff" stroke="#fff" stroke-width="1"/>
      <path id="Path_1385" data-name="Path 1385" d="M160.853-421.155c-.706.412-1.274.862-1.255,1.019a7.158,7.158,0,0,0,.745,1.411l.725,1.137,1.118-.628a12.629,12.629,0,0,0,1.255-.745,4.794,4.794,0,0,0-.588-1.529l-.725-1.411Z" transform="translate(-128.326 439.539)" fill="#fff" stroke="#fff" stroke-width="1"/>
      <path id="Path_1386" data-name="Path 1386" d="M342.706-413.745a11.733,11.733,0,0,0-.706,1.353,19.933,19.933,0,0,0,2.451,1.51,11.455,11.455,0,0,0,.961-1.216c.823-1.1.862-1.215.549-1.431a25.556,25.556,0,0,0-2.49-1.47A10.956,10.956,0,0,0,342.706-413.745Z" transform="translate(-274.969 433.992)" fill="#fff" stroke="#fff" stroke-width="1"/>
      <path id="Path_1387" data-name="Path 1387" d="M133.135-403l-1.235.98.588.725a13.775,13.775,0,0,0,1.059,1.2l.51.451,1.078-.843a5.431,5.431,0,0,0,1.078-1.019,17.967,17.967,0,0,0-1.8-2.49C134.39-404,133.821-403.549,133.135-403Z" transform="translate(-106.059 425.148)" fill="#fff" stroke="#fff" stroke-width="1"/>
      <path id="Path_1388" data-name="Path 1388" d="M367.941-394a6.494,6.494,0,0,0-.941,1.215,5.844,5.844,0,0,0,1.1,1.078l1.1.961,1.059-1.059,1.059-1.039-.941-.961C368.98-395.239,369-395.239,367.941-394Z" transform="translate(-295.067 417.838)" fill="#fff" stroke="#fff" stroke-width="1"/>
      <path id="Path_1389" data-name="Path 1389" d="M126.759-377.727c-7.607,4-13.841,7.293-13.88,7.332-.039.019,2.157,1.216,4.842,2.647,2.705,1.411,4.921,2.647,4.921,2.706,0,.078-2.157,1.274-4.8,2.666-2.647,1.372-4.8,2.588-4.8,2.666s2.157,1.294,4.8,2.666c2.647,1.392,4.8,2.588,4.8,2.666,0,.059-2.215,1.294-4.921,2.706l-4.921,2.588.961.549c2.823,1.588,26.9,14.116,27.114,14.116.451,0,28.055-14.567,27.9-14.7-.079-.078-2.294-1.274-4.9-2.647-2.627-1.372-4.764-2.548-4.764-2.627,0-.059,2.215-1.274,4.9-2.666,2.686-1.412,4.9-2.588,4.9-2.647s-2.215-1.255-4.9-2.647c-2.686-1.411-4.9-2.607-4.9-2.666,0-.078,2.137-1.255,4.764-2.627,2.607-1.372,4.823-2.568,4.9-2.647.176-.137-27.467-14.7-27.918-14.7C140.7-385,134.366-381.726,126.759-377.727Zm24.7,1.784c5.744,3.058,10.449,5.627,10.449,5.725-.02.176-20.723,11.1-21.036,11.1-.353,0-21.036-11.1-21-11.273.059-.2,20.527-11.018,20.919-11.057C140.914-381.471,145.717-378.981,151.461-375.942ZM131.15-360.748c2.607,1.372,5.862,3.078,7.234,3.8l2.509,1.314,6.705-3.529c3.686-1.96,6.979-3.666,7.313-3.823.588-.294.647-.274,3.862,1.431,1.8.961,3.274,1.784,3.274,1.843,0,.2-21.017,11.195-21.291,11.136-.373-.078-21.056-11.018-21.056-11.136s6.293-3.509,6.548-3.529C126.347-363.238,128.563-362.121,131.15-360.748Zm3.235,12.194c3.49,1.843,6.411,3.352,6.509,3.352.078,0,3.137-1.568,6.783-3.489,3.647-1.941,6.9-3.647,7.215-3.823.588-.294.608-.294,3.8,1.49a19.8,19.8,0,0,1,3.156,2c-.02.1-4.744,2.647-10.508,5.646l-10.469,5.47-10.43-5.529c-5.744-3.039-10.528-5.587-10.606-5.685a15.205,15.205,0,0,1,3.137-1.9l3.294-1.784.882.451C127.641-352.1,130.9-350.4,134.385-348.554Z" transform="translate(-90.703 409.873)" fill="#fff" stroke="#fff" stroke-width="1"/>
      <path id="Path_1390" data-name="Path 1390" d="M111.06-379.882a4.95,4.95,0,0,0-.863,1.255,9.646,9.646,0,0,0,1.215,1.019l1.157.863.941-1.1.941-1.1-1.1-1.039A8.673,8.673,0,0,0,112.118-381,5.8,5.8,0,0,0,111.06-379.882Z" transform="translate(-88.61 406.657)" fill="#fff" stroke="#fff" stroke-width="1"/>
      <path id="Path_1391" data-name="Path 1391" d="M389.835-371.02c-.647.529-1.157,1.059-1.137,1.176.137.529,1.51,2.176,1.745,2.078a9.918,9.918,0,0,0,2.431-1.666,19.31,19.31,0,0,0-1.8-2.568C391.031-371.98,390.482-371.549,389.835-371.02Z" transform="translate(-312.511 399.422)" fill="#fff" stroke="#fff" stroke-width="1"/>
      <path id="Path_1392" data-name="Path 1392" d="M92.135-353.373c-.2.353-.568.98-.8,1.372l-.431.725,1.372.706c.765.372,1.431.686,1.47.686a6.676,6.676,0,0,0,.765-1.274l.667-1.255-1.255-.8c-.686-.431-1.294-.784-1.333-.784A3.384,3.384,0,0,0,92.135-353.373Z" transform="translate(-73.097 384.951)" fill="#fff" stroke="#fff" stroke-width="1"/>
      <path id="Path_1393" data-name="Path 1393" d="M406.963-344.2a15.333,15.333,0,0,0-1.333.823,3.236,3.236,0,0,0,.471,1.451l.608,1.314.706-.314c.412-.176,1.059-.431,1.47-.608.392-.157.725-.372.725-.471a19.981,19.981,0,0,0-1.431-2.9C408.159-344.9,407.61-344.588,406.963-344.2Z" transform="translate(-326.11 377.637)" fill="#fff" stroke="#fff" stroke-width="1"/>
      <path id="Path_1394" data-name="Path 1394" d="M79.732-323.49a9.648,9.648,0,0,0-.451,1.529,24.415,24.415,0,0,0,2.96.843,11.206,11.206,0,0,0,.941-2.921A11.977,11.977,0,0,0,80.516-325C80.34-325,80.026-324.392,79.732-323.49Z" transform="translate(-63.752 361.636)" fill="#fff" stroke="#fff" stroke-width="1"/>
      <path id="Path_1395" data-name="Path 1395" d="M419.063-311.9c-1.529.49-1.509.431-1.058,2.215.314,1.176.314,1.176,2.235.765.647-.137,1.176-.333,1.157-.431a22.677,22.677,0,0,0-.843-2.843A3.915,3.915,0,0,0,419.063-311.9Z" transform="translate(-335.857 351.356)" fill="#fff" stroke="#fff" stroke-width="1"/>
      <path id="Path_1396" data-name="Path 1396" d="M72.6-291.494c-.255,1.706-.2,1.823.98,1.823a8.546,8.546,0,0,1,1.294.118c.667.137.725.02.961-1.9l.118-1.1-1.117-.216C72.792-293.18,72.85-293.219,72.6-291.494Z" transform="translate(-58.282 335.913)" fill="#fff" stroke="#fff" stroke-width="1"/>
      <path id="Path_1397" data-name="Path 1397" d="M424.97-280.922l-1.47.2.039.686c.039.372.1,1.059.157,1.51l.117.843h.941a11.733,11.733,0,0,0,1.588-.117l.627-.137-.137-1.392a6.95,6.95,0,0,0-.274-1.588C426.48-281.059,425.97-281.059,424.97-280.922Z" transform="translate(-340.49 326.283)" fill="#fff" stroke="#fff" stroke-width="1"/>
      <path id="Path_1398" data-name="Path 1398" d="M70-259.53c0,.235.059,1,.118,1.647l.137,1.216,1.1-.118c2.1-.2,1.98-.1,1.98-1.745V-260H71.666C70.039-260,70-259.981,70-259.53Z" transform="translate(-56.294 309.38)" fill="#fff" stroke="#fff" stroke-width="1"/>
      <path id="Path_1399" data-name="Path 1399" d="M424.374-254.608a6.119,6.119,0,0,0-.02,1.51,11.412,11.412,0,0,0,3.019.333,12.57,12.57,0,0,0,.176-1.666l.1-1.568h-3.137Z" transform="translate(-341.149 306.164)" fill="#fff" stroke="#fff" stroke-width="1"/>
      <path id="Path_1400" data-name="Path 1400" d="M75.333-228.665c-1.255.177-1.333.216-1.333.706a11.885,11.885,0,0,0,.49,2.49c.039.176.49.137,1.608-.1a6.319,6.319,0,0,0,1.51-.412c-.02-.059-.137-.745-.274-1.529-.137-.765-.353-1.392-.471-1.392C76.745-228.88,76.059-228.782,75.333-228.665Z" transform="translate(-59.51 284.377)" fill="#fff" stroke="#fff" stroke-width="1"/>
      <path id="Path_1401" data-name="Path 1401" d="M419.693-223.8c-.137.667-.294,1.314-.333,1.451-.078.157.314.353,1.176.569a12.127,12.127,0,0,0,1.568.314c.177,0,.373-.47.608-1.49a7.972,7.972,0,0,0,.255-1.549,14.509,14.509,0,0,0-2.588-.49C419.967-225,419.889-224.863,419.693-223.8Z" transform="translate(-337.154 281.241)" fill="#fff" stroke="#fff" stroke-width="1"/>
      <path id="Path_1402" data-name="Path 1402" d="M4.093-207.485a7.065,7.065,0,0,0-3.686,3.764,6.192,6.192,0,0,0,1.019,5.8A5.518,5.518,0,0,0,5.642-195.7l1.412.078.667,1.314a55.874,55.874,0,0,0,4.862,7.273,51.148,51.148,0,0,0,14.782,12.351L28.7-174v1.02a6.11,6.11,0,0,0,3.431,5.352,4.764,4.764,0,0,0,2.647.49,4.486,4.486,0,0,0,2.666-.529,6.1,6.1,0,0,0,3.352-5.94A6.09,6.09,0,0,0,30.6-177.646l-.725.647-1.314-.725a45.011,45.011,0,0,1-10.293-7.881,44.271,44.271,0,0,1-7.509-9.92l-.725-1.314.647-.725A6.14,6.14,0,0,0,8.8-207.23,7.043,7.043,0,0,0,4.093-207.485Zm3.431,3.156A2.935,2.935,0,0,1,6.151-198.8a2.863,2.863,0,0,1-2.49-4.391A2.873,2.873,0,0,1,7.524-204.328Zm29,28.819a2.9,2.9,0,0,1,1.137,2.647,2.645,2.645,0,0,1-1.529,2.333,2.914,2.914,0,0,1-4.294-2.725,2,2,0,0,1,.745-1.843A2.862,2.862,0,0,1,36.52-175.509Z" transform="translate(-0.092 267.392)" fill="#fff" stroke="#fff" stroke-width="1"/>
      <path id="Path_1403" data-name="Path 1403" d="M337.221-207.5a6.586,6.586,0,0,0-3.078,2.215,5.548,5.548,0,0,0-1.118,3.627,5.869,5.869,0,0,0,1.568,4.137l.627.725-.725,1.314a45.173,45.173,0,0,1-7.862,10.293,45.268,45.268,0,0,1-9.94,7.509l-1.313.725-.725-.647a6.159,6.159,0,0,0-9.685,1.9,4.845,4.845,0,0,0-.471,2.627,4.383,4.383,0,0,0,.53,2.647,7.156,7.156,0,0,0,2.9,2.862,4.6,4.6,0,0,0,2.549.47,4.915,4.915,0,0,0,2.784-.549,5.691,5.691,0,0,0,3.294-5.274,2.3,2.3,0,0,1,.157-1.137,60.384,60.384,0,0,0,7.293-4.588,67.512,67.512,0,0,0,9.136-9.038,50.141,50.141,0,0,0,4.1-6.234l.921-1.706h1.059a6.023,6.023,0,0,0,5.372-3.431,7.149,7.149,0,0,0,.039-5.215,7.086,7.086,0,0,0-2.941-2.941A7.438,7.438,0,0,0,337.221-207.5Zm3.333,3.313a2.933,2.933,0,0,1-.882,5.411,2.73,2.73,0,0,1-2.764-.941,1.981,1.981,0,0,1-.745-1.823A2.862,2.862,0,0,1,340.554-204.184Zm-28,29.035c.8.8.863.921.863,1.921a2.875,2.875,0,0,1-4.392,2.647,2.9,2.9,0,0,1,1.608-5.431C311.636-176.012,311.754-175.953,312.558-175.149Z" transform="translate(-244.82 267.346)" fill="#fff" stroke="#fff" stroke-width="1"/>
      <path id="Path_1404" data-name="Path 1404" d="M83.646-199.371c-1.529.549-1.51.51-.627,2.49l.471,1.078,1.333-.608a14.168,14.168,0,0,0,1.392-.667A10.744,10.744,0,0,0,85.1-199.9C85.038-199.881,84.371-199.646,83.646-199.371Z" transform="translate(-66.274 261.063)" fill="#fff" stroke="#fff" stroke-width="1"/>
      <path id="Path_1405" data-name="Path 1405" d="M408.784-195.449A11.781,11.781,0,0,0,408.2-194c.039.039.686.373,1.451.745l1.392.706.608-1.411a10.176,10.176,0,0,0,.627-1.627c0-.118-.588-.412-1.314-.686-.725-.255-1.372-.49-1.431-.529A4.379,4.379,0,0,0,408.784-195.449Z" transform="translate(-328.186 258.572)" fill="#fff" stroke="#fff" stroke-width="1"/>
      <path id="Path_1406" data-name="Path 1406" d="M97.314-172.2,96-171.412l.333.627c.647,1.255,1.294,2.117,1.549,2.019a9.624,9.624,0,0,0,2.235-1.745A18.883,18.883,0,0,0,98.666-173C98.647-172.981,98.059-172.628,97.314-172.2Z" transform="translate(-77.197 239.437)" fill="#fff" stroke="#fff" stroke-width="1"/>
      <path id="Path_1407" data-name="Path 1407" d="M393.253-168.273c-.235.353-.627.9-.882,1.255l-.47.608,1.176.9a7.772,7.772,0,0,0,1.333.9,8.974,8.974,0,0,0,1.745-2.725,8.921,8.921,0,0,0-1.294-.863L393.7-168.9Z" transform="translate(-315.086 236.14)" fill="#fff" stroke="#fff" stroke-width="1"/>
      <path id="Path_1408" data-name="Path 1408" d="M116.039-146.039A5.086,5.086,0,0,0,115-144.922a5.987,5.987,0,0,0,1.039,1.215l1.039,1.02,1.039-1.059,1.059-1.059-.961-1.1a7.289,7.289,0,0,0-1.039-1.1A8.872,8.872,0,0,0,116.039-146.039Z" transform="translate(-92.472 218.533)" fill="#fff" stroke="#fff" stroke-width="1"/>
      <path id="Path_1409" data-name="Path 1409" d="M373.3-143.683l-1,1.1,1.039,1.176,1.039,1.157.725-.667a13.868,13.868,0,0,0,1.1-1.235c.451-.627.412-.706-1-1.882l-.9-.765Z" transform="translate(-299.328 216.765)" fill="#fff" stroke="#fff" stroke-width="1"/>
      <path id="Path_1410" data-name="Path 1410" d="M140.239-123.922c-.51.588-.863,1.157-.784,1.255a9.668,9.668,0,0,0,1.274,1.1l1.176.9.784-1.235a6.965,6.965,0,0,0,.745-1.431A8.142,8.142,0,0,0,141.3-125,6.39,6.39,0,0,0,140.239-123.922Z" transform="translate(-112.124 200.847)" fill="#fff" stroke="#fff" stroke-width="1"/>
      <path id="Path_1411" data-name="Path 1411" d="M349.966-122.294c-.549.373-1.1.765-1.255.843-.216.137-.079.431.568,1.412.471.686.862,1.294.9,1.314a13.2,13.2,0,0,0,2.529-1.725A9.585,9.585,0,0,0,350.986-123C350.966-123,350.5-122.686,349.966-122.294Z" transform="translate(-280.288 199.239)" fill="#fff" stroke="#fff" stroke-width="1"/>
      <path id="Path_1412" data-name="Path 1412" d="M167.1-106.706c-.431.725-.686,1.353-.588,1.451a12.016,12.016,0,0,0,1.49.745l1.314.588.588-1.274c.333-.706.608-1.314.608-1.333a23.409,23.409,0,0,0-2.588-1.47A10.288,10.288,0,0,0,167.1-106.706Z" transform="translate(-133.87 187.179)" fill="#fff" stroke="#fff" stroke-width="1"/>
      <path id="Path_1413" data-name="Path 1413" d="M322.235-105.312a7.286,7.286,0,0,0-1.235.647A9.463,9.463,0,0,0,322.392-102a8.206,8.206,0,0,0,2.529-1.2,13.4,13.4,0,0,0-1.372-2.706C323.49-105.9,322.9-105.626,322.235-105.312Z" transform="translate(-258.086 185.492)" fill="#fff" stroke="#fff" stroke-width="1"/>
      <path id="Path_1414" data-name="Path 1414" d="M197.466-94.51a10.578,10.578,0,0,0-.372,1.529c.059.039,1.705.529,2.764.823.255.078.372-.137.549-1.039.118-.627.275-1.333.333-1.549.078-.373-.078-.471-1.274-.843C198.7-95.8,198.054-96,198-96A9.671,9.671,0,0,0,197.466-94.51Z" transform="translate(-158.47 177.532)" fill="#fff" stroke="#fff" stroke-width="1"/>
      <path id="Path_1415" data-name="Path 1415" d="M293.744-94.549a6.829,6.829,0,0,0-1.216.431,13.356,13.356,0,0,0,.529,3.058,12.021,12.021,0,0,0,2.921-.882c.235-.235-.608-3-.9-2.96C294.959-94.882,294.352-94.725,293.744-94.549Z" transform="translate(-235.182 176.649)" fill="#fff" stroke="#fff" stroke-width="1"/>
      <path id="Path_1416" data-name="Path 1416" d="M229.549-88.165c-.294,1.666-.353,2.47-.2,2.568a9.966,9.966,0,0,0,1.686.235l1.51.137v-3.156l-.921-.118c-.529-.059-1.176-.157-1.451-.216C229.706-88.793,229.647-88.734,229.549-88.165Z" transform="translate(-184.338 171.697)" fill="#fff" stroke="#fff" stroke-width="1"/>
      <path id="Path_1417" data-name="Path 1417" d="M262.451-87.863c-.431.078-.451.176-.451,1.647v1.549h.549c.294,0,1-.059,1.569-.118,1-.137,1.02-.157,1.02-.765,0-.353-.059-1.039-.118-1.549l-.137-.9-1,.02C263.333-87.961,262.686-87.9,262.451-87.863Z" transform="translate(-210.653 171.1)" fill="#fff" stroke="#fff" stroke-width="1"/>
    </g>
  </g>
</svg>
