<svg xmlns="http://www.w3.org/2000/svg" width="30" height="30" viewBox="0 0 30 30">
  <g id="Group_1750" data-name="Group 1750" transform="translate(13274 6633)">
    <rect id="Rectangle_743" data-name="Rectangle 743" width="30" height="30" transform="translate(-13274 -6633)" fill="none"/>
    <g id="Group_1749" data-name="Group 1749" transform="translate(-13270 -6627)">
      <g id="twitter" transform="translate(0 0)">
        <g id="Group_68" data-name="Group 68" transform="translate(0)">
          <path id="Path_460" data-name="Path 460" d="M21.693,50.087a9.272,9.272,0,0,1-2.562.7,4.422,4.422,0,0,0,1.956-2.458,8.887,8.887,0,0,1-2.82,1.076,4.447,4.447,0,0,0-7.693,3.041,4.579,4.579,0,0,0,.1,1.014A12.588,12.588,0,0,1,1.51,48.811a4.448,4.448,0,0,0,1.367,5.944,4.392,4.392,0,0,1-2.009-.548v.049a4.468,4.468,0,0,0,3.563,4.37,4.439,4.439,0,0,1-1.166.146,3.932,3.932,0,0,1-.842-.076,4.489,4.489,0,0,0,4.155,3.1,8.936,8.936,0,0,1-5.514,1.9A8.327,8.327,0,0,1,0,63.629a12.52,12.52,0,0,0,6.822,2A12.57,12.57,0,0,0,19.48,52.97c0-.2-.007-.386-.016-.575A8.872,8.872,0,0,0,21.693,50.087Z" transform="translate(0 -48)" fill="#898989"/>
        </g>
      </g>
    </g>
  </g>
</svg>
