<svg xmlns="http://www.w3.org/2000/svg" width="30" height="30" viewBox="0 0 30 30">
  <g id="Group_1762" data-name="Group 1762" transform="translate(13347 6631)">
    <g id="Group_1752" data-name="Group 1752" transform="translate(-186 24)">
      <rect id="Rectangle_745" data-name="Rectangle 745" width="30" height="30" transform="translate(-13161 -6655)" fill="none"/>
      <g id="Group_1751" data-name="Group 1751" transform="translate(-13157 -6651)">
        <g id="instagram" transform="translate(0)">
          <g id="Group_71" data-name="Group 71">
            <g id="Group_70" data-name="Group 70">
              <path id="Path_461" data-name="Path 461" d="M15.1,0H6.865A6.866,6.866,0,0,0,0,6.865V15.1a6.866,6.866,0,0,0,6.865,6.865H15.1A6.866,6.866,0,0,0,21.969,15.1V6.865A6.866,6.866,0,0,0,15.1,0Zm4.806,15.1A4.811,4.811,0,0,1,15.1,19.909H6.865A4.811,4.811,0,0,1,2.06,15.1V6.865A4.811,4.811,0,0,1,6.865,2.06H15.1a4.811,4.811,0,0,1,4.806,4.806Z" fill="#898989"/>
            </g>
          </g>
          <g id="Group_73" data-name="Group 73" transform="translate(5.492 5.492)">
            <g id="Group_72" data-name="Group 72">
              <path id="Path_462" data-name="Path 462" d="M133.492,128a5.492,5.492,0,1,0,5.492,5.492A5.493,5.493,0,0,0,133.492,128Zm0,8.925a3.433,3.433,0,1,1,3.433-3.433A3.437,3.437,0,0,1,133.492,136.925Z" transform="translate(-128 -128)" fill="#898989"/>
            </g>
          </g>
          <g id="Group_75" data-name="Group 75" transform="translate(16.157 4.348)">
            <g id="Group_74" data-name="Group 74">
              <circle id="Ellipse_93" data-name="Ellipse 93" cx="0.732" cy="0.732" r="0.732" fill="#898989"/>
            </g>
          </g>
        </g>
      </g>
    </g>
  </g>
</svg>
