<svg xmlns="http://www.w3.org/2000/svg" width="30" height="30" viewBox="0 0 30 30">
  <g id="Group_1755" data-name="Group 1755" transform="translate(12700 6594)">
    <rect id="Rectangle_748" data-name="Rectangle 748" width="30" height="30" transform="translate(-12700 -6594)" fill="none"/>
    <g id="phone_1_" data-name="phone (1)" transform="translate(-12693 -6587)">
      <g id="Group_109" data-name="Group 109">
        <path id="Path_470" data-name="Path 470" d="M14.722,10.506a9.088,9.088,0,0,1-2.854-.455,1.3,1.3,0,0,0-1.269.267L8.8,11.677A9.946,9.946,0,0,1,4.328,7.207L5.646,5.454a1.294,1.294,0,0,0,.318-1.311,9.1,9.1,0,0,1-.456-2.859A1.286,1.286,0,0,0,4.224,0H1.284A1.286,1.286,0,0,0,0,1.284,14.738,14.738,0,0,0,14.722,16.006a1.286,1.286,0,0,0,1.284-1.284V11.79A1.286,1.286,0,0,0,14.722,10.506Z" fill="#f68712"/>
      </g>
    </g>
  </g>
</svg>
